<?xml version="1.0" encoding="utf-8"?>
<svg xmlns="http://www.w3.org/2000/svg" viewBox="0 66.272 500 332.847">
  <path id="a31475c4-f0df-4934-8dee-db246d5650fa-273" data-name="Path 438" d="M 19.272 356.507 C 23.552 358.012 28.307 357.174 31.816 354.298 C 36.21 350.61 37.587 344.536 38.708 338.91 L 42.023 322.271 L 35.082 327.05 C 30.091 330.487 24.987 334.034 21.531 339.012 C 18.075 343.99 16.567 350.786 19.343 356.173" fill="#e6e6e6"/>
  <path id="bc80039d-7499-47e3-8dd4-b917794dfbc0-274" data-name="Path 439" d="M 20.343 377.811 C 19.47 371.447 18.571 365 19.185 358.567 C 19.729 352.854 21.473 347.275 25.021 342.698 C 26.905 340.274 29.197 338.197 31.794 336.561 C 32.471 336.133 33.094 337.206 32.42 337.632 C 27.926 340.472 24.45 344.666 22.493 349.609 C 20.332 355.106 19.985 361.098 20.357 366.938 C 20.582 370.469 21.06 373.977 21.54 377.481 C 21.619 377.81 21.43 378.143 21.107 378.244 C 20.777 378.333 20.436 378.14 20.344 377.81 L 20.343 377.811 Z" fill="#f2f2f2"/>
  <path id="a24c42db-7472-45f4-900c-466dbf3f7d22-275" data-name="Path 442" d="M 26.631 367.599 C 28.467 370.389 31.626 372.02 34.964 371.9 C 39.183 371.7 42.699 368.757 45.863 365.961 L 55.226 357.695 L 49.03 357.398 C 44.574 357.185 40.003 356.985 35.758 358.36 C 31.514 359.736 27.6 363.042 26.824 367.435" fill="#e6e6e6"/>
  <path id="a7d2fb0b-6149-49f2-88d6-cc03571334a8-276" data-name="Path 443" d="M 17.874 381.47 C 22.08 374.028 26.958 365.758 35.675 363.114 C 38.098 362.381 40.639 362.119 43.162 362.341 C 43.957 362.41 43.758 363.635 42.965 363.567 C 38.737 363.216 34.517 364.332 31.016 366.728 C 27.647 369.021 25.024 372.209 22.804 375.59 C 21.444 377.661 20.226 379.82 19.008 381.975 C 18.618 382.665 17.48 382.167 17.874 381.47 Z" fill="#f2f2f2"/>
  <rect id="b85ae1dc-b170-4f54-a6de-4a72451950d7" data-name="Rectangle 62" x="92.166" y="88.025" width="347.836" height="165.054" fill="#e6e6e6"/>
  <rect id="f015ec3e-20cc-40e8-8473-d753a9bdb685" data-name="Rectangle 75" x="102.113" y="102.179" width="327.943" height="137.71" fill="#fff"/>
  <rect id="ed585d6d-4c60-4aae-9dcd-e3012a759289" data-name="Rectangle 80" x="92.018" width="347.836" height="14.777" y="78.489" style="fill: rgb(59, 130, 246);"/>
  <circle id="b43fe0fb-7393-4bbe-8dcd-48ed75608891" data-name="Ellipse 90" cx="102.999" cy="85.324" r="2.739" fill="#fff" style=""/>
  <circle id="ada3e127-c3a1-446f-8730-bf32ed0f9b11" data-name="Ellipse 91" cx="113.395" cy="85.324" r="2.739" fill="#fff"/>
  <circle id="e3927273-efa9-4ef7-88ca-a022a07a6d22" data-name="Ellipse 92" cx="123.791" cy="85.324" r="2.739" fill="#fff"/>
  <path d="M 179.567 207.668 L 345.313 207.668 L 345.313 179.26 C 345.262 173.208 342.775 167.433 338.413 163.237 L 338.368 163.193 C 335.408 160.223 325.515 152.684 315.279 153.324 C 309.871 153.66 305.242 156.266 301.519 161.069 C 289.932 176.025 274.71 170.976 266.669 166.636 C 259.581 162.81 252.343 161.015 245.154 161.3 C 235.086 161.694 220.915 165.403 210.58 180.838 C 206.633 186.728 198.049 194.724 179.567 199.422 L 179.567 207.668 Z" fill="#e4e4e4" style="isolation:isolate"/>
  <path d="M 354.691 208.329 L 179.886 208.329 C 179.584 208.329 179.339 208.084 179.339 207.782 L 179.339 123.998 C 179.339 123.576 179.794 123.313 180.159 123.524 C 180.328 123.621 180.433 123.802 180.433 123.998 L 180.433 207.234 L 354.691 207.234 C 355.112 207.234 355.375 207.69 355.164 208.055 C 355.067 208.224 354.886 208.329 354.691 208.329 Z" fill="#3f3d56"/>
  <rect x="212.064" y="176.109" width="1.073" height="31.449" fill="#3f3d56"/>
  <rect x="244.186" y="161.421" width="1.073" height="46.137" fill="#3f3d56"/>
  <rect x="276.375" y="171.078" width="1.073" height="36.481" fill="#3f3d56"/>
  <rect x="308.564" y="153.374" width="1.073" height="54.185" fill="#3f3d56"/>
  <rect x="340.753" y="165.713" width="1.073" height="41.845" fill="#3f3d56"/>
  <circle cx="244.789" cy="162.161" r="3.282" style="fill: rgb(59, 130, 246);"/>
  <circle cx="309.167" cy="153.577" r="3.282" style="fill: rgb(59, 130, 246);"/>
  <circle cx="276.978" cy="171.281" r="3.282" style="fill: rgb(59, 130, 246);"/>
  <circle cx="212.6" cy="176.109" r="3.282" style="fill: rgb(59, 130, 246);"/>
  <circle cx="341.355" cy="165.38" r="3.282" style="fill: rgb(59, 130, 246);"/>
  <polygon points="71.598 376.487 78.175 376.487 81.304 351.118 71.597 351.119 71.598 376.487" fill="#ffb6b6"/>
  <path d="M 69.92 374.34 L 82.873 374.34 C 87.432 374.34 91.127 378.035 91.128 382.594 L 91.128 382.862 L 69.92 382.863 L 69.92 374.34 Z" fill="#2f2e41"/>
  <polygon points="102.714 376.487 109.291 376.487 112.42 351.118 102.713 351.119 102.714 376.487" fill="#ffb6b6"/>
  <path d="M 101.036 374.34 L 113.988 374.34 L 113.989 374.34 C 118.548 374.34 122.243 378.035 122.244 382.594 L 122.244 382.862 L 101.036 382.863 L 101.036 374.34 Z" fill="#2f2e41"/>
  <path d="M 114.988 260.508 C 117.356 257.812 116.71 253.632 113.64 251.775 L 102.937 200.386 L 91.276 204.98 L 105.464 254.049 C 103.413 258.01 106.419 262.706 110.874 262.502 C 112.461 262.429 113.948 261.709 114.988 260.508 Z" fill="#ffb6b6"/>
  <path d="M 64.544 250.612 L 59.696 255.533 C 59.696 255.533 54.498 274.58 64.444 298.071 L 71.097 366.177 L 83.065 367.078 L 86.638 287.842 L 103.124 314.143 L 100.245 366.796 L 113.475 366.492 L 119.455 308.149 L 103.124 247.267 L 64.544 250.612 Z" fill="#2f2e41"/>
  <path d="M 81.495 257.242 C 74.195 257.191 66.904 256.709 59.661 255.8 L 59.369 255.761 L 66.594 224.009 L 64.106 183.155 L 87.597 182.351 C 92.001 182.191 95.818 185.374 96.452 189.735 L 101.26 222.329 L 105.707 251.246 L 105.648 251.333 C 102.452 256.02 91.766 257.242 81.495 257.242 Z" style="fill: rgb(59, 130, 246);"/>
  <path d="M 85.46 189.108 L 90.233 183.124 C 90.233 183.124 98.6 177.402 101.248 189.664 C 103.897 201.926 108.817 221.831 108.817 221.831 L 92.455 223.156 L 85.46 189.108 Z" style="fill: rgb(59, 130, 246);"/>
  <path d="M 40.23 261.045 C 37.863 258.349 38.508 254.168 41.578 252.311 L 52.281 200.922 L 63.942 205.516 L 49.754 254.585 C 51.805 258.546 48.8 263.242 44.344 263.038 C 42.757 262.966 41.27 262.245 40.23 261.045 Z" fill="#ffb6b6"/>
  <path d="M 69.758 189.644 L 64.985 183.661 C 64.985 183.661 56.618 177.939 53.97 190.2 C 51.321 202.462 46.401 222.368 46.401 222.368 L 62.763 223.693 L 69.758 189.644 Z" style="fill: rgb(59, 130, 246);"/>
  <path d="M 89.873 176.376 L 58.757 176.376 C 57.425 176.374 56.345 175.294 56.343 173.962 L 56.343 160.55 C 56.343 146.715 71.32 138.068 83.301 144.985 C 88.862 148.196 92.287 154.129 92.287 160.55 L 92.287 173.962 C 92.286 175.294 91.206 176.374 89.873 176.376 Z" fill="#2f2e41"/>
  <circle cx="77.751" cy="162.392" r="13.177" fill="#ffb6b6"/>
  <path d="M 96.539 161.891 L 77.512 161.891 L 77.317 159.159 L 76.342 161.891 L 73.412 161.891 L 73.025 156.477 L 71.092 161.891 L 65.423 161.891 L 65.423 161.623 C 65.432 153.775 71.792 147.415 79.64 147.406 L 82.322 147.406 C 90.17 147.415 96.53 153.775 96.539 161.623 L 96.539 161.891 Z" fill="#2f2e41"/>
  <path d="M 77.357 178.88 C 77.213 178.879 77.071 178.867 76.929 178.842 L 62.997 176.384 L 62.997 153.358 L 78.334 153.358 L 77.954 153.801 C 72.671 159.962 76.651 169.952 79.494 175.359 C 79.922 176.167 79.848 177.149 79.305 177.884 C 78.853 178.509 78.128 178.88 77.357 178.88 Z" fill="#2f2e41"/>
  <polygon points="461.839 376.487 455.262 376.487 452.133 351.118 461.841 351.119 461.839 376.487" fill="#9e616a"/>
  <path d="M 463.517 382.863 L 442.309 382.862 L 442.309 382.594 C 442.309 378.035 446.005 374.34 450.564 374.34 L 463.517 374.34 L 463.517 382.863 Z" fill="#2f2e41"/>
  <polygon points="438.234 376.487 431.657 376.487 428.528 351.118 438.235 351.119 438.234 376.487" fill="#9e616a"/>
  <path d="M 439.911 382.863 L 418.704 382.862 L 418.704 382.594 C 418.704 378.035 422.4 374.34 426.959 374.34 L 439.912 374.34 L 439.911 382.863 Z" fill="#2f2e41"/>
  <path d="M 361.632 198.721 C 363.871 201.8 368.348 202.107 370.985 199.362 L 384 204.444 L 389.017 197.289 L 370.538 190.37 C 366.916 187.324 361.356 189.34 360.528 193.999 C 360.234 195.658 360.633 197.365 361.632 198.721 Z" fill="#9e616a"/>
  <polygon points="438.151 242.075 421.016 247.665 426.74 369.015 439.965 369.342 446.732 283.764 448.269 369.004 464.621 369.905 470.649 242.075 438.151 242.075" fill="#2f2e41"/>
  <path d="M 426.59 170.542 L 470.567 160.986 L 475.458 198.854 L 471.386 216.947 L 473.017 244.444 C 473.017 244.444 438.243 261.751 421.016 247.665 C 421.016 247.665 434.862 211.297 426.836 194.272 L 426.59 170.542 Z" fill="#3f3d56"/>
  <path d="M 434.206 175.898 L 426.59 170.542 C 426.59 170.542 426.14 169.918 419.793 177.338 C 413.446 184.758 400.57 196.561 400.57 196.561 L 379.111 188.514 L 375.202 202.958 L 400.142 214.581 L 435.451 191 L 434.206 175.898 Z" fill="#3f3d56"/>
  <path d="M 473.025 258.638 C 476.466 257.013 477.602 252.671 475.397 249.569 L 482.815 237.729 L 476.719 231.466 L 466.479 248.333 C 462.811 251.324 463.756 257.163 468.18 258.844 C 469.755 259.442 471.506 259.368 473.025 258.638 Z" fill="#9e616a"/>
  <path d="M 463.708 168.446 L 470.567 160.986 C 470.567 160.986 478.21 158.325 484.455 172.078 C 490.699 185.831 497.673 213.728 497.673 213.728 L 481.367 245.138 L 468.703 239.479 L 481.367 213.506 L 467.966 194.272 L 463.708 168.446 Z" fill="#3f3d56"/>
  <circle cx="967.363" cy="290.844" r="14.275" transform="matrix(0.877455, -0.479659, 0.479659, 0.877455, -543.093833, 354.156677)" fill="#9e616a"/>
  <path d="M 458.656 133.942 L 459.348 132.549 L 455.866 130.819 C 455.866 130.819 452.024 124.568 445.073 126.325 C 438.121 128.081 434.994 129.133 434.994 129.133 L 431.52 130.88 L 433.264 132.615 L 430.136 133.666 L 432.226 134.704 L 429.795 136.102 L 431.103 143.265 C 431.103 143.265 433.277 137.832 437.456 139.908 C 441.634 141.984 449.278 138.835 449.278 138.835 L 455.918 151.686 C 455.918 151.686 457.288 147.181 459.731 148.382 C 459.731 148.382 465.971 138.445 458.656 133.942 Z" fill="#2f2e41"/>
  <path d="M 159.091 382.988 L -1.317 382.988 C -1.73 382.988 -1.988 382.541 -1.782 382.183 C -1.686 382.017 -1.509 381.915 -1.317 381.915 L 159.091 381.915 C 159.504 381.915 159.762 382.362 159.555 382.72 C 159.459 382.886 159.282 382.988 159.091 382.988 Z" fill="#cacaca"/>
  <path d="M 497.61 382.988 L 374.756 382.988 C 374.343 382.988 374.085 382.541 374.291 382.183 C 374.387 382.017 374.564 381.915 374.756 381.915 L 497.61 381.915 C 498.023 381.915 498.281 382.362 498.075 382.72 C 497.979 382.886 497.802 382.988 497.61 382.988 Z" fill="#cacaca"/>
</svg>