<?xml version="1.0" encoding="utf-8"?>
<svg xmlns="http://www.w3.org/2000/svg" viewBox="55.386 88.98 387.413 349.279">
  <g transform="matrix(1, 0, 0, 1, -33.739449, -7.90403)">
    <path d="M 323.462 333.289 L 323.462 405.805 L 141.627 405.805 C 120.909 405.805 104.053 389.539 104.053 369.547 C 104.053 349.555 120.909 333.289 141.627 333.289 L 323.462 333.289 Z" fill="#f2f2f2" style=""/>
    <path d="M 327.928 405.247 C 327.927 406.787 326.678 408.036 325.137 408.036 L 138.388 408.036 C 108.949 408.036 90.549 376.195 105.269 350.721 C 112.1 338.898 124.725 331.616 138.388 331.616 L 325.137 331.616 C 327.285 331.616 328.629 333.94 327.554 335.799 C 327.056 336.662 326.134 337.194 325.137 337.194 L 138.388 337.194 C 113.246 337.194 97.533 364.388 110.103 386.142 C 115.938 396.238 126.72 402.459 138.388 402.459 L 325.137 402.459 C 326.678 402.459 327.927 403.707 327.928 405.247 Z" style="fill: rgb(59, 130, 246);"/>
    <path d="M 323.462 350.024 L 128.06 350.024 C 127.63 350.024 127.361 349.559 127.576 349.187 C 127.676 349.015 127.86 348.908 128.06 348.908 L 323.462 348.908 C 323.892 348.908 324.16 349.373 323.946 349.745 C 323.846 349.917 323.662 350.024 323.462 350.024 Z" fill="#ccc" style=""/>
    <path d="M 323.462 363.411 L 128.06 363.411 C 127.63 363.411 127.361 362.947 127.576 362.575 C 127.676 362.402 127.86 362.296 128.06 362.296 L 323.462 362.296 C 323.892 362.296 324.16 362.761 323.946 363.133 C 323.846 363.305 323.662 363.411 323.462 363.411 Z" fill="#ccc" style=""/>
    <path d="M 323.462 376.799 L 128.06 376.799 C 127.63 376.799 127.361 376.334 127.576 375.962 C 127.676 375.79 127.86 375.683 128.06 375.683 L 323.462 375.683 C 323.892 375.683 324.16 376.148 323.946 376.52 C 323.846 376.693 323.662 376.799 323.462 376.799 Z" fill="#ccc" style=""/>
    <path d="M 323.462 390.187 L 128.06 390.187 C 127.63 390.187 127.361 389.722 127.576 389.35 C 127.676 389.177 127.86 389.071 128.06 389.071 L 323.462 389.071 C 323.892 389.071 324.16 389.536 323.946 389.908 C 323.846 390.08 323.662 390.187 323.462 390.187 Z" fill="#ccc" style=""/>
    <path d="M 463.994 346.94 L 418.456 403.406 L 276.865 289.417 C 260.733 276.428 257.821 253.196 270.376 237.629 C 282.93 222.061 306.27 219.962 322.402 232.95 L 463.994 346.94 Z" fill="#f2f2f2" style=""/>
    <path d="M 422.285 405.772 C 421.318 406.971 419.561 407.159 418.36 406.194 L 272.943 289.124 C 250.018 270.668 255.686 234.339 283.145 223.731 C 295.888 218.808 310.293 221.051 320.931 229.616 L 466.349 346.686 C 468.023 348.033 467.61 350.685 465.607 351.46 C 464.676 351.82 463.623 351.657 462.846 351.03 L 317.429 233.96 C 297.857 218.191 268.54 229.504 264.658 254.323 C 262.855 265.851 267.349 277.463 276.445 284.78 L 421.862 401.85 C 423.063 402.817 423.251 404.572 422.285 405.772 Z" fill="#ccc" style=""/>
    <path d="M 453.485 359.97 L 301.33 237.475 C 300.995 237.206 301.077 236.676 301.478 236.521 C 301.664 236.448 301.875 236.482 302.03 236.607 L 454.186 359.101 C 454.521 359.37 454.439 359.901 454.038 360.056 C 453.852 360.129 453.641 360.096 453.485 359.97 Z" fill="#ccc" style=""/>
    <path d="M 445.078 370.395 L 292.923 247.9 C 292.588 247.63 292.672 247.1 293.073 246.946 C 293.258 246.874 293.468 246.907 293.623 247.031 L 445.779 369.526 C 446.114 369.795 446.032 370.326 445.632 370.481 C 445.445 370.553 445.234 370.521 445.078 370.395 Z" fill="#ccc" style=""/>
    <path d="M 436.671 380.82 L 284.516 258.325 C 284.181 258.055 284.264 257.525 284.664 257.37 C 284.85 257.298 285.061 257.331 285.217 257.456 L 437.372 379.951 C 437.707 380.22 437.624 380.751 437.224 380.905 C 437.038 380.977 436.827 380.944 436.671 380.82 Z" fill="#ccc" style=""/>
    <path d="M 428.265 391.244 L 276.109 268.749 C 275.774 268.48 275.857 267.95 276.258 267.795 C 276.444 267.723 276.654 267.756 276.81 267.881 L 428.965 390.375 C 429.3 390.645 429.219 391.175 428.817 391.33 C 428.631 391.403 428.42 391.369 428.265 391.244 Z" fill="#ccc" style=""/>
    <polygon points="247.515 325.668 241.133 325.667 238.098 301.069 247.518 301.07 247.515 325.668" fill="#ffb8b8" style=""/>
    <path d="M 236.574 323.845 L 248.883 323.845 C 248.883 323.845 248.883 323.845 248.883 323.845 L 248.883 331.588 C 248.883 331.588 248.883 331.588 248.883 331.588 L 228.824 331.588 C 228.824 331.588 228.824 331.588 228.824 331.588 C 228.824 327.312 232.294 323.845 236.574 323.845 Z" fill="#2f2e41" style=""/>
    <polygon points="182.31 325.668 175.927 325.667 172.892 301.069 182.312 301.07 182.31 325.668" fill="#ffb8b8" style=""/>
    <path d="M 171.368 323.845 L 183.678 323.845 C 183.678 323.845 183.678 323.845 183.678 323.845 L 183.678 331.588 C 183.678 331.588 183.678 331.588 183.678 331.588 L 163.618 331.588 C 163.618 331.588 163.618 331.588 163.618 331.588 C 163.618 327.312 167.088 323.845 171.368 323.845 Z" fill="#2f2e41" style=""/>
    <path d="M 203.628 143.212 L 203.628 140.422 C 203.628 130.488 211.69 122.433 221.633 122.433 C 231.577 122.433 239.638 130.488 239.638 140.422 L 239.638 143.212 C 239.638 150.374 233.826 156.181 226.658 156.181 L 216.608 156.181 C 209.44 156.181 203.628 150.374 203.628 143.212 Z" fill="#2f2e41" style=""/>
    <circle cx="200.497" cy="98.592" r="16.506" fill="#ffb8b8" style="" transform="matrix(0.830739, 0, 0, 0.83003, 55.072442, 61.606427)"/>
    <path fill="#ffb8b8" style=""/>
    <path d="M 147.047 190.527 C 149.417 188.292 153.233 188.739 155.02 191.462 L 166.775 189.241 L 169.868 196.049 L 153.224 198.954 C 149.696 200.944 145.334 198.372 145.373 194.324 C 145.387 192.883 145.992 191.51 147.047 190.527 Z" fill="#ffb8b8" style=""/>
    <path d="M 210.943 165.769 L 211.096 166.001 L 191.821 178.688 L 159.296 189.066 C 158.407 189.352 157.843 190.224 157.949 191.151 L 158.659 197.258 C 158.792 198.402 159.882 199.183 161.01 198.941 L 191.621 192.385 C 193.102 192.07 194.502 191.453 195.736 190.575 L 217.391 175.181 C 218.988 174.039 219.869 172.145 219.712 170.19 C 219.365 165.977 214.629 163.675 211.096 166.001 L 210.943 165.769 Z" fill="#ccc" style=""/>
    <path d="M 241.247 318.687 C 240.246 318.687 239.34 318.096 238.937 317.18 L 209.677 244.942 C 209.42 244.352 208.619 244.262 208.236 244.779 C 208.18 244.856 208.137 244.94 208.109 245.031 L 184.238 315.357 C 183.812 316.739 182.309 317.477 180.954 316.97 L 172.949 313.97 C 172.063 313.641 171.437 312.842 171.331 311.904 C 167.73 280.559 199.135 201.439 199.452 200.644 L 199.54 200.424 L 228.167 206.751 L 228.227 206.816 C 239.649 219.265 249.036 297.785 250.802 313.4 C 250.939 314.562 250.249 315.662 249.144 316.047 L 242.078 318.544 C 241.811 318.639 241.531 318.687 241.247 318.687 Z" fill="#2f2e41" style=""/>
    <path d="M 216.582 209.297 C 209.645 209.297 201.913 207.916 199.533 202.213 L 199.478 202.082 L 199.552 201.961 C 201.431 198.88 203.914 193.626 202.579 192.64 C 199.95 190.698 198.674 187.502 198.787 183.143 C 199.033 173.679 205.487 165.277 214.847 162.235 C 217.46 161.4 220.118 160.716 222.81 160.186 C 226.783 159.385 230.906 160.403 234.05 162.96 C 237.232 165.533 239.096 169.395 239.128 173.486 C 239.226 183.6 237.668 197.686 229.686 207.357 C 229.312 207.806 228.791 208.108 228.216 208.211 C 224.376 208.905 220.484 209.268 216.582 209.297 Z" fill="#ccc" style=""/>
    <path d="M 214.002 208.919 C 214.787 206.103 217.696 204.445 220.521 205.202 C 220.799 205.279 221.069 205.379 221.33 205.501 L 230.255 197.385 L 236.462 201.563 L 223.699 212.848 C 222.512 214.985 220.023 216.04 217.662 215.407 C 214.848 214.638 213.203 211.723 214.002 208.919 Z" fill="#ffb8b8" style=""/>
    <path d="M 228.841 209.022 C 228.262 209.023 227.7 208.823 227.253 208.456 L 223.733 205.582 C 222.478 204.558 222.508 202.631 223.793 201.646 L 238.556 190.334 C 238.92 190.054 238.991 189.533 238.714 189.166 L 229.603 177.13 C 227.417 174.253 227.627 170.22 230.098 167.583 C 232.712 164.762 237.055 164.415 240.084 166.786 L 240.142 166.846 L 249.657 180.458 C 254.071 183.916 253.97 190.625 249.456 193.949 L 230.336 208.53 C 229.904 208.849 229.379 209.022 228.841 209.022 Z" fill="#ccc" style=""/>
    <path d="M 209.487 139.586 L 209.487 132.789 L 221.633 127.489 L 233.215 132.789 L 233.215 139.586 C 233.215 140.202 232.715 140.701 232.098 140.701 L 210.604 140.701 C 209.987 140.701 209.487 140.202 209.487 139.586 Z" fill="#2f2e41" style=""/>
    <path d="M 221.075 123.335 C 219.29 117.624 223.04 111.078 228.585 108.818 C 234.13 106.557 240.763 108.137 245.442 111.873 C 250.12 115.607 253.023 121.201 254.562 126.984 C 256.099 132.767 256.392 138.797 256.675 144.773 C 263.488 146.024 268.122 154.097 265.762 160.604 C 263.402 167.11 254.667 170.342 248.635 166.942 C 242.602 163.541 240.855 154.399 245.209 149.017 C 252.334 140.209 247.244 126.997 236.046 125.237 C 233.352 124.813 230.592 125.146 228.076 126.197 C 224.719 127.6 220.506 123.955 221.075 123.335 Z" fill="#2f2e41" style=""/>
    <path d="M 144.529 164.158 C 136.373 164.104 128.318 162.342 120.886 158.984 C 119.983 158.582 119.402 157.684 119.406 156.695 L 119.406 136.38 C 119.408 134.995 120.532 133.872 121.918 133.87 L 167.14 133.87 C 168.527 133.872 169.651 134.995 169.653 136.38 L 169.653 156.695 C 169.657 157.684 169.076 158.582 168.172 158.984 C 160.74 162.342 152.686 164.104 144.529 164.158 Z" style="fill: rgb(59, 130, 246);"/>
    <path d="M 144.523 147.701 C 144.188 147.701 143.856 147.634 143.547 147.504 L 107.687 132.388 C 105.905 131.636 105.605 129.24 107.147 128.074 C 107.337 127.93 107.548 127.813 107.772 127.729 L 143.633 114.135 C 144.21 113.915 144.849 113.917 145.426 114.139 L 180.806 127.732 C 182.61 128.426 182.988 130.811 181.484 132.027 C 181.304 132.173 181.104 132.292 180.892 132.383 L 145.511 147.499 C 145.199 147.632 144.862 147.701 144.523 147.701 Z" style="fill: rgb(59, 130, 246);"/>
    <circle cx="82.482" cy="114.952" r="4.032" fill="#3f3d56" style="" transform="matrix(0.830739, 0, 0, 0.83003, 55.072442, 61.606427)"/>
    <path d="M 181.014 130.237 L 145.633 145.354 C 145.076 145.592 144.445 145.593 143.887 145.358 L 108.027 130.242 C 107.576 130.057 107.201 129.727 106.959 129.304 C 106.289 130.466 106.79 131.953 108.027 132.473 L 143.887 147.59 C 144.445 147.825 145.076 147.823 145.633 147.585 L 181.014 132.469 C 182.245 131.944 182.74 130.463 182.071 129.304 C 181.832 129.723 181.46 130.051 181.014 130.237 Z" opacity="0.2" style=""/>
    <path d="M 123.875 157.006 C 124.183 157.006 124.433 156.756 124.433 156.449 L 124.433 137.783 L 142.846 131.081 C 143.276 131.087 143.552 130.626 143.342 130.251 C 143.245 130.078 143.062 129.968 142.863 129.966 L 124.45 136.667 C 124.15 136.661 123.861 136.777 123.65 136.988 C 123.435 137.198 123.316 137.484 123.316 137.783 L 123.316 156.449 C 123.316 156.756 123.566 157.006 123.875 157.006 Z" fill="#3f3d56" style=""/>
  </g>
</svg>