<svg xmlns="http://www.w3.org/2000/svg" xmlns:xlink="http://www.w3.org/1999/xlink" width="500" zoomAndPan="magnify" viewBox="0 0 375 374.999991" height="500" preserveAspectRatio="xMidYMid meet" version="1.0"><defs><g/><clipPath id="1f91a8d0e7"><path d="M 180 122 L 209.835938 122 L 209.835938 151 L 180 151 Z M 180 122 " clip-rule="nonzero"/></clipPath><clipPath id="2b35452e5b"><path d="M 42.785156 130 L 135 130 L 135 277.738281 L 42.785156 277.738281 Z M 42.785156 130 " clip-rule="nonzero"/></clipPath><clipPath id="ccbb5e3db9"><path d="M 13.476562 89.320312 L 141 89.320312 L 141 182 L 13.476562 182 Z M 13.476562 89.320312 " clip-rule="nonzero"/></clipPath></defs><g clip-path="url(#1f91a8d0e7)"><path fill="#3b82f6" d="M 195.035156 122.636719 L 199.601562 133.386719 L 209.835938 133.386719 L 202.429688 140.609375 L 204.179688 150.800781 L 195.035156 145.980469 L 185.875 150.800781 L 187.628906 140.609375 L 180.230469 133.386719 L 190.453125 133.386719 L 195.035156 122.636719 " fill-opacity="1" fill-rule="nonzero"/></g><path fill="#264790" d="M 161.972656 93.511719 L 165.050781 100.757812 L 171.953125 100.757812 L 166.964844 105.625 L 168.140625 112.480469 L 161.972656 109.242188 L 155.8125 112.480469 L 156.980469 105.625 L 152 100.757812 L 158.890625 100.757812 L 161.972656 93.511719 " fill-opacity="1" fill-rule="nonzero"/><path fill="#3b82f6" d="M 141.125 147.914062 L 143.152344 152.675781 L 147.671875 152.675781 L 144.398438 155.859375 L 145.175781 160.371094 L 141.125 158.242188 L 137.082031 160.371094 L 137.863281 155.859375 L 134.585938 152.675781 L 139.109375 152.675781 L 141.125 147.914062 " fill-opacity="1" fill-rule="nonzero"/><g clip-path="url(#2b35452e5b)"><path fill="#3b82f6" d="M 54.734375 193.546875 C 48.1875 231.96875 72.574219 268.53125 109.8125 277.738281 C 108.003906 277.566406 106.171875 277.324219 104.339844 277.003906 C 64.089844 270.160156 37.003906 231.945312 43.859375 191.691406 C 50.71875 151.441406 88.921875 124.34375 129.171875 131.199219 C 131.003906 131.519531 132.8125 131.898438 134.585938 132.332031 C 96.394531 128.691406 61.285156 155.113281 54.734375 193.546875 " fill-opacity="1" fill-rule="evenodd"/></g><path fill="#264790" d="M 166.515625 250.558594 C 105.644531 285.222656 45.566406 200.472656 98.421875 154.507812 C 96.726562 155.480469 95.058594 156.535156 93.429688 157.691406 C 66.78125 176.59375 60.484375 213.523438 79.371094 240.175781 C 98.273438 266.828125 135.207031 273.113281 161.855469 254.222656 C 163.484375 253.066406 165.039062 251.839844 166.515625 250.558594 " fill-opacity="1" fill-rule="evenodd"/><g clip-path="url(#ccbb5e3db9)"><path fill="#264790" d="M 121.683594 111.039062 L 125.359375 119.910156 C 122.464844 119.601562 119.566406 119.453125 116.683594 119.453125 C 96.933594 119.453125 77.679688 126.472656 62.453125 139.203125 C 57.390625 143.425781 52.894531 148.199219 48.988281 153.410156 L 45.140625 144.101562 L 44.660156 142.945312 L 40.929688 142.683594 L 28.769531 141.8125 L 20.105469 141.195312 L 19.761719 141.171875 L 19.761719 166.953125 C 20.65625 167.480469 21.261719 168.441406 21.261719 169.539062 C 21.261719 170.480469 20.828125 171.324219 20.140625 171.863281 C 20.023438 171.96875 19.898438 172.058594 19.761719 172.128906 L 19.761719 174.953125 L 22.910156 181.25 L 13.476562 181.25 L 16.566406 175.070312 L 16.566406 172.300781 C 15.675781 171.785156 15.066406 170.820312 15.066406 169.710938 C 15.066406 168.667969 15.59375 167.753906 16.40625 167.214844 C 16.464844 167.171875 16.511719 167.125 16.566406 167.089844 C 16.636719 167.042969 16.695312 167 16.773438 166.953125 L 16.773438 140.964844 L 68.554688 91.703125 L 126.824219 90.25 L 140.003906 89.917969 L 121.683594 111.039062 " fill-opacity="1" fill-rule="evenodd"/></g><g fill="#3b82f6" fill-opacity="1"><g transform="translate(87.631862, 223.894121)"><g><path d="M 0.5625 -46.125 L 0.5625 -57.65625 L 41.09375 -57.65625 L 41.09375 -46.125 L 27.390625 -46.125 L 27.390625 0 L 14.25 0 L 14.25 -46.125 Z M 0.5625 -46.125 "/></g></g></g><g fill="#3b82f6" fill-opacity="1"><g transform="translate(124.04758, 223.894121)"><g><path d="M 4.1875 0 L 4.1875 -35.859375 L 16.5625 -35.859375 L 16.5625 -30.6875 L 16.703125 -30.6875 C 16.796875 -30.875 16.945312 -31.101562 17.15625 -31.375 C 17.363281 -31.65625 17.816406 -32.144531 18.515625 -32.84375 C 19.210938 -33.539062 19.957031 -34.171875 20.75 -34.734375 C 21.550781 -35.296875 22.578125 -35.796875 23.828125 -36.234375 C 25.085938 -36.679688 26.367188 -36.90625 27.671875 -36.90625 C 29.023438 -36.90625 30.351562 -36.71875 31.65625 -36.34375 C 32.96875 -35.96875 33.925781 -35.59375 34.53125 -35.21875 L 35.5 -34.671875 L 30.328125 -24.1875 C 28.796875 -25.488281 26.65625 -26.140625 23.90625 -26.140625 C 22.414062 -26.140625 21.132812 -25.8125 20.0625 -25.15625 C 18.988281 -24.507812 18.226562 -23.71875 17.78125 -22.78125 C 17.34375 -21.851562 17.03125 -21.0625 16.84375 -20.40625 C 16.65625 -19.75 16.5625 -19.238281 16.5625 -18.875 L 16.5625 0 Z M 4.1875 0 "/></g></g></g><g fill="#3b82f6" fill-opacity="1"><g transform="translate(153.613457, 223.894121)"><g><path d="M 6.640625 -4.4375 C 3.285156 -8.09375 1.609375 -12.578125 1.609375 -17.890625 C 1.609375 -23.203125 3.285156 -27.695312 6.640625 -31.375 C 9.992188 -35.0625 14.253906 -36.90625 19.421875 -36.90625 C 24.179688 -36.90625 28.097656 -35.410156 31.171875 -32.421875 L 31.171875 -35.859375 L 43.546875 -35.859375 L 43.546875 0 L 31.3125 0 L 31.3125 -4.046875 L 31.171875 -4.046875 C 28.097656 -0.648438 24.179688 1.046875 19.421875 1.046875 C 14.253906 1.046875 9.992188 -0.78125 6.640625 -4.4375 Z M 17.15625 -23.96875 C 15.550781 -22.382812 14.75 -20.359375 14.75 -17.890625 C 14.75 -15.421875 15.515625 -13.40625 17.046875 -11.84375 C 18.585938 -10.28125 20.617188 -9.5 23.140625 -9.5 C 25.554688 -9.5 27.546875 -10.289062 29.109375 -11.875 C 30.671875 -13.457031 31.453125 -15.460938 31.453125 -17.890625 C 31.453125 -20.359375 30.644531 -22.382812 29.03125 -23.96875 C 27.425781 -25.550781 25.460938 -26.34375 23.140625 -26.34375 C 20.753906 -26.34375 18.757812 -25.550781 17.15625 -23.96875 Z M 17.15625 -23.96875 "/></g></g></g><g fill="#3b82f6" fill-opacity="1"><g transform="translate(196.110168, 223.894121)"><g><path d="M 23.28125 -26.765625 C 20.945312 -26.765625 18.941406 -25.898438 17.265625 -24.171875 C 15.585938 -22.453125 14.75 -20.382812 14.75 -17.96875 C 14.75 -15.488281 15.585938 -13.382812 17.265625 -11.65625 C 18.941406 -9.9375 20.945312 -9.078125 23.28125 -9.078125 C 24.394531 -9.078125 25.453125 -9.21875 26.453125 -9.5 C 27.453125 -9.78125 28.1875 -10.0625 28.65625 -10.34375 L 29.28125 -10.765625 L 33.484375 -2.171875 C 33.148438 -1.929688 32.691406 -1.632812 32.109375 -1.28125 C 31.523438 -0.9375 30.195312 -0.460938 28.125 0.140625 C 26.050781 0.742188 23.828125 1.046875 21.453125 1.046875 C 16.191406 1.046875 11.566406 -0.800781 7.578125 -4.5 C 3.597656 -8.207031 1.609375 -12.648438 1.609375 -17.828125 C 1.609375 -23.046875 3.597656 -27.53125 7.578125 -31.28125 C 11.566406 -35.03125 16.191406 -36.90625 21.453125 -36.90625 C 23.828125 -36.90625 26.015625 -36.625 28.015625 -36.0625 C 30.023438 -35.5 31.453125 -34.941406 32.296875 -34.390625 L 33.484375 -33.546875 L 29.28125 -25.09375 C 27.75 -26.207031 25.75 -26.765625 23.28125 -26.765625 Z M 23.28125 -26.765625 "/></g></g></g><g fill="#3b82f6" fill-opacity="1"><g transform="translate(225.186781, 223.894121)"><g><path d="M 45.15625 -35.859375 L 28.09375 -18.734375 L 46.828125 0 L 30.890625 0 L 16.5625 -14.328125 L 16.5625 0 L 4.1875 0 L 4.1875 -60.109375 L 16.5625 -60.109375 L 16.5625 -23.34375 L 29.078125 -35.859375 Z M 45.15625 -35.859375 "/></g></g></g><g fill="#3b82f6" fill-opacity="1"><g transform="translate(265.097311, 223.894121)"><g><path d="M 37.1875 -57.65625 L 37.1875 -46.125 L 17.328125 -46.125 L 17.328125 -34.671875 L 36.34375 -34.671875 L 36.34375 -23.140625 L 17.328125 -23.140625 L 17.328125 -11.53125 L 37.1875 -11.53125 L 37.1875 0 L 4.1875 0 L 4.1875 -57.65625 Z M 37.1875 -57.65625 "/></g></g></g><g fill="#3b82f6" fill-opacity="1"><g transform="translate(300.394693, 223.894121)"><g><path d="M 6.640625 -4.4375 C 3.285156 -8.09375 1.609375 -12.578125 1.609375 -17.890625 C 1.609375 -23.203125 3.285156 -27.695312 6.640625 -31.375 C 9.992188 -35.0625 14.253906 -36.90625 19.421875 -36.90625 C 24.179688 -36.90625 28.097656 -35.410156 31.171875 -32.421875 L 31.171875 -60.109375 L 43.546875 -60.109375 L 43.546875 0 L 31.3125 0 L 31.3125 -4.046875 L 31.171875 -4.046875 C 28.097656 -0.648438 24.179688 1.046875 19.421875 1.046875 C 14.253906 1.046875 9.992188 -0.78125 6.640625 -4.4375 Z M 17.15625 -23.96875 C 15.550781 -22.382812 14.75 -20.359375 14.75 -17.890625 C 14.75 -15.421875 15.515625 -13.40625 17.046875 -11.84375 C 18.585938 -10.28125 20.617188 -9.5 23.140625 -9.5 C 25.554688 -9.5 27.546875 -10.289062 29.109375 -11.875 C 30.671875 -13.457031 31.453125 -15.460938 31.453125 -17.890625 C 31.453125 -20.359375 30.644531 -22.382812 29.03125 -23.96875 C 27.425781 -25.550781 25.460938 -26.34375 23.140625 -26.34375 C 20.753906 -26.34375 18.757812 -25.550781 17.15625 -23.96875 Z M 17.15625 -23.96875 "/></g></g></g></svg>